<svg version="1.1" viewBox="0 0 16 16" xmlns="http://www.w3.org/2000/svg"><defs><style>.cls-1{fill:#fee;}.cls-2{fill:#bd4949;}</style></defs><title>schema</title><g transform="matrix(1.2232 0 0 1.2232 -1.7859 -1.7859)" data-name="2"><rect class="cls-1" transform="rotate(-45 4.9916 5.5324)" x="2.87" y="3.41" width="4.25" height="4.25"/><path class="cls-2" d="M 5,3.06 7.47,5.53 5,8 2.52,5.53 5,3.06 M 5,2 1.46,5.53 5,9.07 8.53,5.53 Z"/><rect class="cls-2" transform="rotate(135 5.006 5.5356)" x="4.11" y="4.63" width="1.8" height="1.8"/><rect class="cls-1" transform="rotate(-45 11.002 5.5329)" x="8.88" y="3.41" width="4.25" height="4.25"/><path class="cls-2" d="M 11,3.06 13.47,5.53 11,8 8.53,5.53 11,3.06 M 11,2 7.47,5.53 11,9.07 14.54,5.53 Z"/><rect class="cls-2" transform="rotate(135 11.016 5.5355)" x="10.12" y="4.63" width="1.8" height="1.8"/><rect class="cls-1" transform="rotate(-45 7.996 10.468)" x="5.87" y="8.34" width="4.25" height="4.25"/><path class="cls-2" d="M 8,8 10.47,10.47 8,12.94 5.52,10.47 8,8 M 8,6.93 4.46,10.47 8,14 11.54,10.46 Z"/><rect class="cls-2" transform="rotate(135 8.0133 10.466)" x="7.11" y="9.57" width="1.8" height="1.8"/></g></svg>
