<?xml version="1.0" encoding="UTF-8" standalone="no"?><!DOCTYPE svg PUBLIC "-//W3C//DTD SVG 1.1//EN" "http://www.w3.org/Graphics/SVG/1.1/DTD/svg11.dtd"><svg width="100%" height="100%" viewBox="0 0 251 48" version="1.1" xmlns="http://www.w3.org/2000/svg" xmlns:xlink="http://www.w3.org/1999/xlink" xml:space="preserve" xmlns:serif="http://www.serif.com/" style="fill-rule:evenodd;clip-rule:evenodd;stroke-linejoin:round;stroke-miterlimit:2;"><g transform="matrix(1,0,0,1,-15.0486,13.7124)"><g transform="matrix(33,0,-8.84232,33,28.1916,18.7686)"><path d="M0.685,-0.182c0,-0.063 -0.023,-0.112 -0.068,-0.145c-0.033,-0.025 -0.071,-0.037 -0.114,-0.037l-0.473,-0l0,0.505l0.219,-0l0,-0.432l0.109,-0c0.033,-0 0.059,0.01 0.079,0.029c0.02,0.019 0.03,0.046 0.03,0.08c0,0.045 -0.016,0.076 -0.048,0.094c-0.017,0.01 -0.038,0.015 -0.062,0.015l-0.036,-0l0,0.073l0.182,-0c0.044,-0 0.082,-0.012 0.115,-0.037c0.045,-0.033 0.067,-0.081 0.067,-0.145Z" style="fill:#7774d4;fill-rule:nonzero;"/></g><g transform="matrix(33,0,-8.84232,33,51.7866,18.7686)"><path d="M0.685,-0.182c0,-0.044 -0.012,-0.082 -0.037,-0.115c-0.033,-0.045 -0.081,-0.067 -0.145,-0.067l-0.255,0l0,-0.291l-0.218,0l0,0.655l0.218,-0l0,-0.291l0.11,0c0.033,0 0.059,0.01 0.079,0.029c0.02,0.019 0.03,0.046 0.03,0.08l0,0.182l0.218,-0l0,-0.182Z" style="fill:#7774d4;fill-rule:nonzero;"/></g><g transform="matrix(33,0,-8.84232,33,75.3816,18.7686)"><path d="M0.685,-0.182c0,-0.063 -0.023,-0.112 -0.068,-0.145c-0.033,-0.025 -0.071,-0.037 -0.114,-0.037l-0.473,-0l0,0.505l0.219,-0l0,-0.432l0.109,-0c0.033,-0 0.059,0.01 0.079,0.029c0.02,0.019 0.03,0.046 0.03,0.08c0,0.045 -0.016,0.076 -0.048,0.094c-0.017,0.01 -0.038,0.015 -0.062,0.015l-0.036,-0l0,0.073l0.182,-0c0.044,-0 0.082,-0.012 0.115,-0.037c0.045,-0.033 0.067,-0.081 0.067,-0.145Z" style="fill:#7774d4;fill-rule:nonzero;"/></g><g transform="matrix(33,0,-8.84232,33,98.9766,18.7686)"><path d="M0.684,-0.473c0,-0.063 -0.023,-0.112 -0.068,-0.145c-0.033,-0.025 -0.071,-0.037 -0.114,-0.037l-0.472,0l-0,0.655l0.218,-0l-0,-0.582l0.109,0c0.033,0 0.059,0.01 0.079,0.029c0.02,0.019 0.03,0.046 0.03,0.08c-0,0.044 -0.016,0.075 -0.048,0.094c-0.017,0.01 -0.038,0.015 -0.061,0.015l-0.037,-0l-0,0.073l0.182,-0c0.044,-0 0.082,-0.012 0.115,-0.037c0.045,-0.033 0.067,-0.081 0.067,-0.145Z" style="fill:#468bc4;fill-rule:nonzero;"/></g><g transform="matrix(33,0,-8.84232,33,120.427,18.7686)"><path d="M0.684,-0.182c0,-0.044 -0.012,-0.082 -0.037,-0.115c-0.033,-0.045 -0.081,-0.067 -0.145,-0.067l-0.291,0c-0.043,-0 -0.081,0.012 -0.114,0.037c-0.045,0.033 -0.067,0.081 -0.067,0.145c-0,0.064 0.022,0.112 0.067,0.145c0.033,0.025 0.071,0.037 0.114,0.037l0.182,0l0,-0.073l-0.036,0c-0.033,0 -0.059,-0.01 -0.079,-0.029c-0.02,-0.019 -0.03,-0.046 -0.03,-0.08c0,-0.034 0.01,-0.061 0.03,-0.08c0.02,-0.019 0.046,-0.029 0.079,-0.029c0.033,0 0.059,0.01 0.079,0.029c0.02,0.019 0.03,0.046 0.03,0.08l0,0.146c0,0.032 -0.01,0.058 -0.029,0.077c-0.019,0.019 -0.046,0.028 -0.08,0.028l-0.181,0l0,0.072l0.326,0c0.044,0 0.082,-0.012 0.115,-0.037c0.045,-0.033 0.067,-0.079 0.067,-0.14l0,-0.146Z" style="fill:#468bc4;fill-rule:nonzero;"/></g><g transform="matrix(33,0,-8.84232,33,143.989,18.7686)"><path d="M0.684,-0.473c0,-0.044 -0.012,-0.082 -0.037,-0.115c-0.033,-0.045 -0.081,-0.067 -0.145,-0.067l-0.291,0c-0.063,0 -0.112,0.023 -0.145,0.068c-0.024,0.033 -0.036,0.071 -0.036,0.114l-0,0.473l0.218,-0l-0,-0.473c-0,-0.034 0.01,-0.061 0.03,-0.08c0.02,-0.019 0.046,-0.029 0.079,-0.029c0.033,0 0.059,0.01 0.079,0.029c0.02,0.019 0.03,0.046 0.03,0.08l-0,0.109l-0.145,-0l-0,0.073l0.145,-0l-0,0.291l0.218,-0l0,-0.473Z" style="fill:#7774d4;fill-rule:nonzero;"/></g><g transform="matrix(33,0,-8.84232,33,167.551,18.7686)"><path d="M0.685,-0.655l-0.218,0l-0,0.291l-0.255,0c-0.044,0 -0.082,0.012 -0.115,0.037c-0.045,0.033 -0.067,0.081 -0.067,0.145c-0,0.063 0.023,0.112 0.068,0.145c0.033,0.025 0.071,0.037 0.114,0.037l0.182,0l-0,-0.073l-0.036,0c-0.033,0 -0.059,-0.01 -0.079,-0.029c-0.02,-0.019 -0.03,-0.046 -0.03,-0.08c-0,-0.034 0.01,-0.061 0.03,-0.08c0.02,-0.019 0.046,-0.029 0.079,-0.029l0.109,0l-0,0.291l0.218,0l0,-0.655Z" style="fill:#7774d4;fill-rule:nonzero;"/></g><g transform="matrix(33,0,-8.84232,33,191.146,18.7686)"><path d="M0.83,-0.182c0,-0.044 -0.012,-0.082 -0.037,-0.115c-0.033,-0.045 -0.081,-0.067 -0.145,-0.067l-0.436,0c-0.063,-0 -0.112,0.023 -0.145,0.068c-0.025,0.033 -0.037,0.071 -0.037,0.114l-0,0.182l0.218,-0l-0,-0.182c-0,-0.031 0.008,-0.055 0.025,-0.074c0.013,-0.015 0.029,-0.024 0.048,-0.029l0,0.285l0.218,-0l0,-0.285c0.019,0.005 0.036,0.015 0.049,0.03c0.016,0.018 0.024,0.042 0.024,0.073l-0,0.182l0.218,-0l0,-0.182Z" style="fill:#7774d4;fill-rule:nonzero;"/></g><g transform="matrix(33,0,-8.84232,33,219.526,18.7686)"><path d="M0.248,-0.364l-0.218,0l0,0.364l0.218,-0l0,-0.364Zm0,-0.145l-0.218,0l0,0.073l0.218,0l0,-0.073Z" style="fill:#7774d4;fill-rule:nonzero;"/></g><g transform="matrix(33,0,-8.84232,33,228.7,18.7686)"><path d="M0.685,-0.182c0,-0.044 -0.012,-0.082 -0.037,-0.115c-0.033,-0.045 -0.081,-0.067 -0.145,-0.067l-0.291,0c-0.063,-0 -0.112,0.023 -0.145,0.068c-0.025,0.033 -0.037,0.071 -0.037,0.114l-0,0.182l0.219,-0l-0,-0.182c-0,-0.034 0.01,-0.061 0.03,-0.08c0.02,-0.019 0.046,-0.029 0.079,-0.029c0.033,0 0.059,0.01 0.079,0.029c0.02,0.019 0.03,0.046 0.03,0.08l-0,0.182l0.218,-0l0,-0.182Z" style="fill:#7774d4;fill-rule:nonzero;"/></g></g></svg>